<?xml version="1.0" encoding="UTF-8" standalone="no"?>
<!DOCTYPE svg PUBLIC "-//W3C//DTD SVG 1.1//EN" "http://www.w3.org/Graphics/SVG/1.1/DTD/svg11.dtd">
<svg width="100%" height="100%" viewBox="0 0 800 600" version="1.1" xmlns="http://www.w3.org/2000/svg" xmlns:xlink="http://www.w3.org/1999/xlink" xml:space="preserve" xmlns:serif="http://www.serif.com/" style="fill-rule:evenodd;clip-rule:evenodd;stroke-linecap:round;stroke-linejoin:round;stroke-miterlimit:1.5;">
    <g transform="matrix(0.000224579,1,-1,0.000224579,399.774,300.574)">
        <circle cx="0" cy="0" r="283.531" style="fill:rgb(255,211,122);stroke:rgb(251,180,39);stroke-width:6px;"/>
    </g>
    <g transform="matrix(17.6305,0,0,17.6305,126.065,92.6797)">
        <path d="M4.341,11.58L12.382,11.58C12.57,11.58 12.723,11.428 12.723,11.24L12.723,10.503C12.723,10.315 12.57,10.162 12.382,10.162L4.341,10.162C4.152,10.162 4,10.315 4,10.503L4,11.24C4,11.428 4.152,11.58 4.341,11.58Z" style="fill:white;fill-rule:nonzero;"/>
    </g>
    <g transform="matrix(17.6305,0,0,17.6305,126.065,92.6797)">
        <path d="M4.802,16.506L11.921,16.506C12.109,16.506 12.262,16.353 12.262,16.165L12.262,11.187L4.461,11.187L4.461,16.165C4.461,16.353 4.613,16.506 4.802,16.506Z" style="fill:white;fill-rule:nonzero;"/>
    </g>
    <g transform="matrix(17.6305,0,0,17.6305,126.065,92.6797)">
        <rect x="4.461" y="11.58" width="7.801" height="0.426" style="fill:rgb(255,211,122);fill-rule:nonzero;"/>
    </g>
    <g transform="matrix(17.6305,0,0,17.6305,126.065,92.6797)">
        <rect x="7.632" y="10.162" width="0.426" height="6.344" style="fill:rgb(255,211,122);fill-rule:nonzero;"/>
    </g>
    <g transform="matrix(17.6305,0,0,17.6305,126.065,92.6797)">
        <rect x="8.729" y="10.162" width="0.426" height="6.344" style="fill:rgb(255,211,122);fill-rule:nonzero;"/>
    </g>
    <g transform="matrix(17.6305,0,0,17.6305,126.065,92.6797)">
        <path d="M8.361,10.162C8.307,10.162 8.255,10.139 8.22,10.097C8.184,10.056 8.168,10.002 8.176,9.948C8.18,9.92 8.599,7.162 10.799,7.162C11.768,7.162 12.112,7.686 12.112,8.134C12.112,8.976 10.948,10.162 8.361,10.162ZM10.799,7.537C9.257,7.537 8.731,9.181 8.59,9.783C10.645,9.72 11.737,8.802 11.737,8.134C11.737,7.967 11.666,7.83 11.529,7.727C11.364,7.603 11.111,7.537 10.799,7.537Z" style="fill:white;fill-rule:nonzero;"/>
    </g>
    <g transform="matrix(17.6305,0,0,17.6305,126.065,92.6797)">
        <path d="M8.362,10.162C5.775,10.162 4.611,8.976 4.611,8.134C4.611,7.851 4.738,7.6 4.969,7.427C5.199,7.254 5.53,7.162 5.924,7.162C8.124,7.162 8.543,9.92 8.547,9.948C8.555,10.002 8.539,10.056 8.503,10.097C8.468,10.139 8.416,10.162 8.362,10.162ZM5.924,7.537C5.346,7.537 4.986,7.765 4.986,8.134C4.986,8.803 6.079,9.72 8.134,9.784C7.998,9.178 7.486,7.537 5.924,7.537Z" style="fill:white;fill-rule:nonzero;"/>
    </g>
    <g transform="matrix(17.6305,0,0,17.6305,126.065,92.6797)">
        <path d="M15.528,2.5L15.528,21.168" style="fill:none;fill-rule:nonzero;stroke:white;stroke-width:1px;stroke-miterlimit:4;stroke-dasharray:4,4;"/>
    </g>
    <g transform="matrix(17.6305,0,0,17.6305,126.065,92.6797)">
        <path d="M27,8.011C27,7.495 26.606,7.045 26.092,7.084C26.037,7.089 25.985,7.094 25.936,7.102C24.429,7.329 24.287,10.835 24.308,12.552C24.315,13.079 24.749,13.486 25.275,13.486L26,13.486C26.552,13.486 27,13.039 27,12.486L27,8.011ZM27,14.041C27,13.735 26.752,13.487 26.446,13.487C26.158,13.487 25.918,13.707 25.894,13.995L25.728,15.989C25.697,16.36 25.99,16.679 26.363,16.679C26.715,16.679 27,16.394 27,16.041L27,14.041Z" style="fill:white;"/>
    </g>
    <g transform="matrix(17.6305,0,0,17.6305,126.065,92.6797)">
        <path d="M21.399,7.559C21.399,7.244 21.143,6.989 20.829,6.989C20.514,6.989 20.259,7.244 20.259,7.559L20.259,9.554C20.259,9.711 20.131,9.839 19.974,9.839C19.816,9.839 19.689,9.711 19.689,9.554L19.689,7.559C19.689,7.244 19.433,6.989 19.119,6.989C18.804,6.989 18.549,7.244 18.549,7.559L18.549,9.945C18.549,10.063 18.569,10.175 18.606,10.28C18.709,10.668 18.946,11.002 19.263,11.229C19.723,11.559 20.207,12.017 20.178,12.582L20.016,15.825C19.993,16.29 20.363,16.679 20.829,16.679C21.294,16.679 21.664,16.29 21.641,15.825L21.479,12.582C21.45,12.017 21.935,11.559 22.394,11.229C22.712,11.002 22.948,10.668 23.051,10.28C23.088,10.175 23.109,10.063 23.109,9.945L23.109,7.559C23.109,7.244 22.853,6.989 22.539,6.989C22.224,6.989 21.969,7.244 21.969,7.559L21.969,9.554C21.969,9.711 21.841,9.839 21.684,9.839C21.526,9.839 21.399,9.711 21.399,9.554L21.399,7.559Z" style="fill:white;"/>
    </g>
</svg>
